<mxfile host="app.diagrams.net" modified="2021-11-09T18:32:44.306Z" agent="5.0 (X11; Linux x86_64) AppleWebKit/537.36 (KHTML, like Gecko) Chrome/91.0.4472.77 Safari/537.36" etag="e7GP3QtK_rQ5ylkm_hx8" version="15.7.0" type="github">
  <diagram name="Page-1" id="c4acf3e9-155e-7222-9cf6-157b1a14988f">
    <mxGraphModel dx="1250" dy="1844" grid="1" gridSize="10" guides="1" tooltips="1" connect="1" arrows="1" fold="1" page="1" pageScale="1" pageWidth="850" pageHeight="1100" background="none" math="0" shadow="0">
      <root>
        <mxCell id="0" />
        <mxCell id="1" parent="0" />
        <mxCell id="1JhX8ZgM-yy_0caui9JD-9" style="edgeStyle=orthogonalEdgeStyle;rounded=0;jumpSize=6;orthogonalLoop=1;jettySize=auto;html=1;fontFamily=Verdana;fontSize=12;endArrow=block;endFill=0;startSize=40;endSize=12;strokeWidth=1;entryX=0.75;entryY=0;entryDx=0;entryDy=0;exitX=0.5;exitY=0;exitDx=0;exitDy=0;" parent="1" source="17acba5748e5396b-20" target="9RX2nL8yfyn7hLd6P2aQ-16" edge="1">
          <mxGeometry relative="1" as="geometry">
            <Array as="points">
              <mxPoint x="867" y="-160" />
              <mxPoint x="867" y="-190" />
              <mxPoint x="560" y="-190" />
            </Array>
            <mxPoint x="895" y="-160.19999999999987" as="sourcePoint" />
          </mxGeometry>
        </mxCell>
        <mxCell id="aItx6ip8RPUMW4J_HGg--37" style="edgeStyle=orthogonalEdgeStyle;rounded=0;orthogonalLoop=1;jettySize=auto;html=1;entryX=0.5;entryY=0;entryDx=0;entryDy=0;" edge="1" parent="1" source="17acba5748e5396b-20" target="aItx6ip8RPUMW4J_HGg--17">
          <mxGeometry relative="1" as="geometry">
            <mxPoint x="867" y="-2" as="targetPoint" />
          </mxGeometry>
        </mxCell>
        <mxCell id="17acba5748e5396b-20" value="&lt;pre&gt;&lt;b&gt;Estudante&lt;/b&gt;&lt;/pre&gt;" style="swimlane;html=1;fontStyle=0;childLayout=stackLayout;horizontal=1;startSize=30;fillColor=none;horizontalStack=0;resizeParent=1;resizeLast=0;collapsible=1;marginBottom=0;swimlaneFillColor=#ffffff;rounded=0;shadow=0;comic=0;labelBackgroundColor=none;strokeWidth=1;fontFamily=Verdana;fontSize=12;align=center;" parent="1" vertex="1">
          <mxGeometry x="735" y="-160.2" width="265" height="60.2" as="geometry">
            <mxRectangle x="520" y="200" width="80" height="26" as="alternateBounds" />
          </mxGeometry>
        </mxCell>
        <mxCell id="aItx6ip8RPUMW4J_HGg--25" value="- vinculos: List&amp;lt;Vinculo&amp;gt;" style="text;html=1;strokeColor=none;fillColor=none;align=left;verticalAlign=top;spacingLeft=4;spacingRight=4;whiteSpace=wrap;overflow=hidden;rotatable=0;points=[[0,0.5],[1,0.5]];portConstraint=eastwest;" vertex="1" parent="17acba5748e5396b-20">
          <mxGeometry y="30" width="265" height="26" as="geometry" />
        </mxCell>
        <mxCell id="1wyRQQ8GatOI3k9adVf--83" style="edgeStyle=orthogonalEdgeStyle;rounded=0;orthogonalLoop=1;jettySize=auto;html=1;exitX=0.5;exitY=0;exitDx=0;exitDy=0;entryX=1;entryY=0.5;entryDx=0;entryDy=0;dashed=1;endArrow=block;endFill=0;endSize=12;startSize=12;" parent="1" source="17acba5748e5396b-30" target="1JhX8ZgM-yy_0caui9JD-40" edge="1">
          <mxGeometry relative="1" as="geometry">
            <Array as="points">
              <mxPoint x="1722" y="176" />
            </Array>
            <mxPoint x="1795" y="401.86" as="sourcePoint" />
          </mxGeometry>
        </mxCell>
        <mxCell id="17acba5748e5396b-30" value="&lt;pre style=&quot;font-size: 12px&quot;&gt;&lt;b&gt;Curso&lt;/b&gt;&lt;/pre&gt;" style="swimlane;html=1;fontStyle=0;childLayout=stackLayout;horizontal=1;startSize=26;fillColor=none;horizontalStack=0;resizeParent=1;resizeLast=0;collapsible=1;marginBottom=0;swimlaneFillColor=#ffffff;rounded=0;shadow=0;comic=0;labelBackgroundColor=none;strokeWidth=1;fontFamily=Verdana;fontSize=10;align=center;" parent="1" vertex="1">
          <mxGeometry x="1562" y="246" width="320" height="400" as="geometry" />
        </mxCell>
        <mxCell id="1wyRQQ8GatOI3k9adVf--92" value="- id: Integer" style="text;html=1;strokeColor=none;fillColor=none;align=left;verticalAlign=top;spacingLeft=4;spacingRight=4;whiteSpace=wrap;overflow=hidden;rotatable=0;points=[[0,0.5],[1,0.5]];portConstraint=eastwest;" parent="17acba5748e5396b-30" vertex="1">
          <mxGeometry y="26" width="320" height="26" as="geometry" />
        </mxCell>
        <mxCell id="1wyRQQ8GatOI3k9adVf--95" value="- nome: String" style="text;html=1;strokeColor=none;fillColor=none;align=left;verticalAlign=top;spacingLeft=4;spacingRight=4;whiteSpace=wrap;overflow=hidden;rotatable=0;points=[[0,0.5],[1,0.5]];portConstraint=eastwest;" parent="17acba5748e5396b-30" vertex="1">
          <mxGeometry y="52" width="320" height="26" as="geometry" />
        </mxCell>
        <mxCell id="17acba5748e5396b-31" value="- codigo: Integer" style="text;html=1;strokeColor=none;fillColor=none;align=left;verticalAlign=top;spacingLeft=4;spacingRight=4;whiteSpace=wrap;overflow=hidden;rotatable=0;points=[[0,0.5],[1,0.5]];portConstraint=eastwest;" parent="17acba5748e5396b-30" vertex="1">
          <mxGeometry y="78" width="320" height="26" as="geometry" />
        </mxCell>
        <mxCell id="1wyRQQ8GatOI3k9adVf--85" value="- disciplinasObrigatorias: List&amp;lt;DisciplinaSemestre&amp;gt;" style="text;html=1;strokeColor=none;fillColor=none;align=left;verticalAlign=top;spacingLeft=4;spacingRight=4;whiteSpace=wrap;overflow=hidden;rotatable=0;points=[[0,0.5],[1,0.5]];portConstraint=eastwest;" parent="17acba5748e5396b-30" vertex="1">
          <mxGeometry y="104" width="320" height="26" as="geometry" />
        </mxCell>
        <mxCell id="1JhX8ZgM-yy_0caui9JD-30" value="- disciplinasOptativas: List&amp;lt;Disciplinas&amp;gt;" style="text;html=1;strokeColor=none;fillColor=none;align=left;verticalAlign=top;spacingLeft=4;spacingRight=4;whiteSpace=wrap;overflow=hidden;rotatable=0;points=[[0,0.5],[1,0.5]];portConstraint=eastwest;" parent="17acba5748e5396b-30" vertex="1">
          <mxGeometry y="130" width="320" height="26" as="geometry" />
        </mxCell>
        <mxCell id="9RX2nL8yfyn7hLd6P2aQ-1" value="- chm: Integer" style="text;html=1;strokeColor=none;fillColor=none;align=left;verticalAlign=top;spacingLeft=4;spacingRight=4;whiteSpace=wrap;overflow=hidden;rotatable=0;points=[[0,0.5],[1,0.5]];portConstraint=eastwest;" parent="17acba5748e5396b-30" vertex="1">
          <mxGeometry y="156" width="320" height="26" as="geometry" />
        </mxCell>
        <mxCell id="1wyRQQ8GatOI3k9adVf--74" value="- cho: Integer" style="text;html=1;strokeColor=none;fillColor=none;align=left;verticalAlign=top;spacingLeft=4;spacingRight=4;whiteSpace=wrap;overflow=hidden;rotatable=0;points=[[0,0.5],[1,0.5]];portConstraint=eastwest;" parent="17acba5748e5396b-30" vertex="1">
          <mxGeometry y="182" width="320" height="26" as="geometry" />
        </mxCell>
        <mxCell id="1wyRQQ8GatOI3k9adVf--75" value="- chom: Integer" style="text;html=1;strokeColor=none;fillColor=none;align=left;verticalAlign=top;spacingLeft=4;spacingRight=4;whiteSpace=wrap;overflow=hidden;rotatable=0;points=[[0,0.5],[1,0.5]];portConstraint=eastwest;" parent="17acba5748e5396b-30" vertex="1">
          <mxGeometry y="208" width="320" height="26" as="geometry" />
        </mxCell>
        <mxCell id="9RX2nL8yfyn7hLd6P2aQ-4" value="- chcm: Integer" style="text;html=1;strokeColor=none;fillColor=none;align=left;verticalAlign=top;spacingLeft=4;spacingRight=4;whiteSpace=wrap;overflow=hidden;rotatable=0;points=[[0,0.5],[1,0.5]];portConstraint=eastwest;" parent="17acba5748e5396b-30" vertex="1">
          <mxGeometry y="234" width="320" height="26" as="geometry" />
        </mxCell>
        <mxCell id="9RX2nL8yfyn7hLd6P2aQ-5" value="- chem: Integer" style="text;html=1;strokeColor=none;fillColor=none;align=left;verticalAlign=top;spacingLeft=4;spacingRight=4;whiteSpace=wrap;overflow=hidden;rotatable=0;points=[[0,0.5],[1,0.5]];portConstraint=eastwest;" parent="17acba5748e5396b-30" vertex="1">
          <mxGeometry y="260" width="320" height="26" as="geometry" />
        </mxCell>
        <mxCell id="17acba5748e5396b-33" value="- chmp: Integer" style="text;html=1;strokeColor=none;fillColor=none;align=left;verticalAlign=top;spacingLeft=4;spacingRight=4;whiteSpace=wrap;overflow=hidden;rotatable=0;points=[[0,0.5],[1,0.5]];portConstraint=eastwest;" parent="17acba5748e5396b-30" vertex="1">
          <mxGeometry y="286" width="320" height="26" as="geometry" />
        </mxCell>
        <mxCell id="9RX2nL8yfyn7hLd6P2aQ-6" value="- prazoMinimo: Integer" style="text;html=1;strokeColor=none;fillColor=none;align=left;verticalAlign=top;spacingLeft=4;spacingRight=4;whiteSpace=wrap;overflow=hidden;rotatable=0;points=[[0,0.5],[1,0.5]];portConstraint=eastwest;" parent="17acba5748e5396b-30" vertex="1">
          <mxGeometry y="312" width="320" height="24" as="geometry" />
        </mxCell>
        <mxCell id="9RX2nL8yfyn7hLd6P2aQ-7" value="- prazoMaximo: Integer" style="text;html=1;strokeColor=none;fillColor=none;align=left;verticalAlign=top;spacingLeft=4;spacingRight=4;whiteSpace=wrap;overflow=hidden;rotatable=0;points=[[0,0.5],[1,0.5]];portConstraint=eastwest;" parent="17acba5748e5396b-30" vertex="1">
          <mxGeometry y="336" width="320" height="26" as="geometry" />
        </mxCell>
        <mxCell id="9RX2nL8yfyn7hLd6P2aQ-8" value="- prazoEsperado: Integer" style="text;html=1;strokeColor=none;fillColor=none;align=left;verticalAlign=top;spacingLeft=4;spacingRight=4;whiteSpace=wrap;overflow=hidden;rotatable=0;points=[[0,0.5],[1,0.5]];portConstraint=eastwest;" parent="17acba5748e5396b-30" vertex="1">
          <mxGeometry y="362" width="320" height="26" as="geometry" />
        </mxCell>
        <mxCell id="1JhX8ZgM-yy_0caui9JD-10" style="edgeStyle=orthogonalEdgeStyle;rounded=0;jumpSize=6;orthogonalLoop=1;jettySize=auto;html=1;entryX=0.25;entryY=0;entryDx=0;entryDy=0;fontFamily=Verdana;fontSize=12;endArrow=block;endFill=0;startSize=40;endSize=12;strokeWidth=1;exitX=0.5;exitY=0;exitDx=0;exitDy=0;" parent="1" source="9RX2nL8yfyn7hLd6P2aQ-10" target="9RX2nL8yfyn7hLd6P2aQ-16" edge="1">
          <mxGeometry relative="1" as="geometry">
            <Array as="points">
              <mxPoint x="250" y="-190.06" />
              <mxPoint x="480" y="-190.06" />
            </Array>
          </mxGeometry>
        </mxCell>
        <mxCell id="9RX2nL8yfyn7hLd6P2aQ-10" value="&lt;pre&gt;&lt;b&gt;Administrador&lt;/b&gt;&lt;/pre&gt;" style="swimlane;html=1;fontStyle=0;childLayout=stackLayout;horizontal=1;startSize=26;fillColor=none;horizontalStack=0;resizeParent=1;resizeLast=0;collapsible=1;marginBottom=0;swimlaneFillColor=#ffffff;rounded=0;shadow=0;comic=0;labelBackgroundColor=none;strokeWidth=1;fontFamily=Verdana;fontSize=12;align=center;" parent="1" vertex="1">
          <mxGeometry x="170" y="-160.2" width="160" height="50.2" as="geometry" />
        </mxCell>
        <mxCell id="9RX2nL8yfyn7hLd6P2aQ-16" value="&lt;pre style=&quot;font-size: 12px&quot;&gt;&amp;lt;&amp;lt;abstract&amp;gt;&amp;gt;&lt;br style=&quot;font-size: 12px&quot;&gt;&lt;b&gt;Usuario&lt;/b&gt;&lt;/pre&gt;" style="swimlane;html=1;fontStyle=0;childLayout=stackLayout;horizontal=1;startSize=40;fillColor=none;horizontalStack=0;resizeParent=1;resizeLast=0;collapsible=1;marginBottom=0;swimlaneFillColor=#ffffff;rounded=0;shadow=0;comic=0;labelBackgroundColor=none;strokeWidth=1;fontFamily=Verdana;fontSize=12;align=center;strokeColor=default;" parent="1" vertex="1">
          <mxGeometry x="440" y="-160.2" width="160" height="160" as="geometry" />
        </mxCell>
        <mxCell id="9RX2nL8yfyn7hLd6P2aQ-17" value="# id: Integer" style="text;html=1;strokeColor=none;fillColor=none;align=left;verticalAlign=top;spacingLeft=4;spacingRight=4;whiteSpace=wrap;overflow=hidden;rotatable=0;points=[[0,0.5],[1,0.5]];portConstraint=eastwest;" parent="9RX2nL8yfyn7hLd6P2aQ-16" vertex="1">
          <mxGeometry y="40" width="160" height="26" as="geometry" />
        </mxCell>
        <mxCell id="9RX2nL8yfyn7hLd6P2aQ-18" value="# nome: String" style="text;html=1;strokeColor=none;fillColor=none;align=left;verticalAlign=top;spacingLeft=4;spacingRight=4;whiteSpace=wrap;overflow=hidden;rotatable=0;points=[[0,0.5],[1,0.5]];portConstraint=eastwest;" parent="9RX2nL8yfyn7hLd6P2aQ-16" vertex="1">
          <mxGeometry y="66" width="160" height="26" as="geometry" />
        </mxCell>
        <mxCell id="1JhX8ZgM-yy_0caui9JD-5" value="# email: String" style="text;html=1;strokeColor=none;fillColor=none;align=left;verticalAlign=top;spacingLeft=4;spacingRight=4;whiteSpace=wrap;overflow=hidden;rotatable=0;points=[[0,0.5],[1,0.5]];portConstraint=eastwest;" parent="9RX2nL8yfyn7hLd6P2aQ-16" vertex="1">
          <mxGeometry y="92" width="160" height="26" as="geometry" />
        </mxCell>
        <mxCell id="9RX2nL8yfyn7hLd6P2aQ-19" value="# senha: String" style="text;html=1;strokeColor=none;fillColor=none;align=left;verticalAlign=top;spacingLeft=4;spacingRight=4;whiteSpace=wrap;overflow=hidden;rotatable=0;points=[[0,0.5],[1,0.5]];portConstraint=eastwest;" parent="9RX2nL8yfyn7hLd6P2aQ-16" vertex="1">
          <mxGeometry y="118" width="160" height="26" as="geometry" />
        </mxCell>
        <mxCell id="9RX2nL8yfyn7hLd6P2aQ-20" value="&lt;pre style=&quot;font-size: 12px&quot;&gt;&lt;b&gt;Disciplina&lt;/b&gt;&lt;/pre&gt;" style="swimlane;html=1;fontStyle=0;childLayout=stackLayout;horizontal=1;startSize=26;fillColor=none;horizontalStack=0;resizeParent=1;resizeLast=0;collapsible=1;marginBottom=0;swimlaneFillColor=#ffffff;rounded=0;shadow=0;comic=0;labelBackgroundColor=none;strokeWidth=1;fontFamily=Verdana;fontSize=10;align=center;" parent="1" vertex="1">
          <mxGeometry x="380" y="370" width="280" height="210" as="geometry" />
        </mxCell>
        <mxCell id="9RX2nL8yfyn7hLd6P2aQ-21" value="- id: Integer" style="text;html=1;strokeColor=none;fillColor=none;align=left;verticalAlign=top;spacingLeft=4;spacingRight=4;whiteSpace=wrap;overflow=hidden;rotatable=0;points=[[0,0.5],[1,0.5]];portConstraint=eastwest;" parent="9RX2nL8yfyn7hLd6P2aQ-20" vertex="1">
          <mxGeometry y="26" width="280" height="26" as="geometry" />
        </mxCell>
        <mxCell id="1JhX8ZgM-yy_0caui9JD-15" value="- codigo: String" style="text;html=1;strokeColor=none;fillColor=none;align=left;verticalAlign=top;spacingLeft=4;spacingRight=4;whiteSpace=wrap;overflow=hidden;rotatable=0;points=[[0,0.5],[1,0.5]];portConstraint=eastwest;" parent="9RX2nL8yfyn7hLd6P2aQ-20" vertex="1">
          <mxGeometry y="52" width="280" height="26" as="geometry" />
        </mxCell>
        <mxCell id="9RX2nL8yfyn7hLd6P2aQ-22" value="- nome: String" style="text;html=1;strokeColor=none;fillColor=none;align=left;verticalAlign=top;spacingLeft=4;spacingRight=4;whiteSpace=wrap;overflow=hidden;rotatable=0;points=[[0,0.5],[1,0.5]];portConstraint=eastwest;" parent="9RX2nL8yfyn7hLd6P2aQ-20" vertex="1">
          <mxGeometry y="78" width="280" height="26" as="geometry" />
        </mxCell>
        <mxCell id="9RX2nL8yfyn7hLd6P2aQ-23" value="- ch: Integer" style="text;html=1;strokeColor=none;fillColor=none;align=left;verticalAlign=top;spacingLeft=4;spacingRight=4;whiteSpace=wrap;overflow=hidden;rotatable=0;points=[[0,0.5],[1,0.5]];portConstraint=eastwest;" parent="9RX2nL8yfyn7hLd6P2aQ-20" vertex="1">
          <mxGeometry y="104" width="280" height="26" as="geometry" />
        </mxCell>
        <mxCell id="9RX2nL8yfyn7hLd6P2aQ-45" value="- preRequisitos: List&amp;lt;Disciplina&amp;gt;" style="text;html=1;strokeColor=none;fillColor=none;align=left;verticalAlign=top;spacingLeft=4;spacingRight=4;whiteSpace=wrap;overflow=hidden;rotatable=0;points=[[0,0.5],[1,0.5]];portConstraint=eastwest;" parent="9RX2nL8yfyn7hLd6P2aQ-20" vertex="1">
          <mxGeometry y="130" width="280" height="26" as="geometry" />
        </mxCell>
        <mxCell id="9RX2nL8yfyn7hLd6P2aQ-46" value="- coRequisitos: List&amp;lt;Disciplina&amp;gt;" style="text;html=1;strokeColor=none;fillColor=none;align=left;verticalAlign=top;spacingLeft=4;spacingRight=4;whiteSpace=wrap;overflow=hidden;rotatable=0;points=[[0,0.5],[1,0.5]];portConstraint=eastwest;" parent="9RX2nL8yfyn7hLd6P2aQ-20" vertex="1">
          <mxGeometry y="156" width="280" height="26" as="geometry" />
        </mxCell>
        <mxCell id="9RX2nL8yfyn7hLd6P2aQ-47" value="- equivalentes: List&amp;lt;Disciplina&amp;gt;" style="text;html=1;strokeColor=none;fillColor=none;align=left;verticalAlign=top;spacingLeft=4;spacingRight=4;whiteSpace=wrap;overflow=hidden;rotatable=0;points=[[0,0.5],[1,0.5]];portConstraint=eastwest;" parent="9RX2nL8yfyn7hLd6P2aQ-20" vertex="1">
          <mxGeometry y="182" width="280" height="26" as="geometry" />
        </mxCell>
        <mxCell id="aItx6ip8RPUMW4J_HGg--42" style="edgeStyle=orthogonalEdgeStyle;rounded=0;orthogonalLoop=1;jettySize=auto;html=1;entryX=0.498;entryY=0.973;entryDx=0;entryDy=0;entryPerimeter=0;dashed=1;endFill=0;endArrow=block;endSize=12;startSize=12;" edge="1" parent="1" source="9RX2nL8yfyn7hLd6P2aQ-28" target="1wyRQQ8GatOI3k9adVf--80">
          <mxGeometry relative="1" as="geometry" />
        </mxCell>
        <mxCell id="aItx6ip8RPUMW4J_HGg--44" style="edgeStyle=orthogonalEdgeStyle;rounded=0;orthogonalLoop=1;jettySize=auto;html=1;entryX=0;entryY=0.5;entryDx=0;entryDy=0;" edge="1" parent="1" source="9RX2nL8yfyn7hLd6P2aQ-28" target="1wyRQQ8GatOI3k9adVf--75">
          <mxGeometry relative="1" as="geometry">
            <mxPoint x="1619.9999999999998" y="466.8600000000001" as="targetPoint" />
          </mxGeometry>
        </mxCell>
        <mxCell id="9RX2nL8yfyn7hLd6P2aQ-28" value="&lt;pre style=&quot;font-size: 12px&quot;&gt;&lt;b&gt;Enfase&lt;/b&gt;&lt;/pre&gt;" style="swimlane;html=1;fontStyle=0;childLayout=stackLayout;horizontal=1;startSize=26;fillColor=none;horizontalStack=0;resizeParent=1;resizeLast=0;collapsible=1;marginBottom=0;swimlaneFillColor=#ffffff;rounded=0;shadow=0;comic=0;labelBackgroundColor=none;strokeWidth=1;fontFamily=Verdana;fontSize=10;align=center;" parent="1" vertex="1">
          <mxGeometry x="1131" y="401.86" width="320" height="130" as="geometry" />
        </mxCell>
        <mxCell id="1wyRQQ8GatOI3k9adVf--93" value="- id: Integer" style="text;html=1;strokeColor=none;fillColor=none;align=left;verticalAlign=top;spacingLeft=4;spacingRight=4;whiteSpace=wrap;overflow=hidden;rotatable=0;points=[[0,0.5],[1,0.5]];portConstraint=eastwest;" parent="9RX2nL8yfyn7hLd6P2aQ-28" vertex="1">
          <mxGeometry y="26" width="320" height="26" as="geometry" />
        </mxCell>
        <mxCell id="1wyRQQ8GatOI3k9adVf--94" value="- nome: String" style="text;html=1;strokeColor=none;fillColor=none;align=left;verticalAlign=top;spacingLeft=4;spacingRight=4;whiteSpace=wrap;overflow=hidden;rotatable=0;points=[[0,0.5],[1,0.5]];portConstraint=eastwest;" parent="9RX2nL8yfyn7hLd6P2aQ-28" vertex="1">
          <mxGeometry y="52" width="320" height="26" as="geometry" />
        </mxCell>
        <mxCell id="9RX2nL8yfyn7hLd6P2aQ-33" value="- curso: Curso" style="text;html=1;strokeColor=none;fillColor=none;align=left;verticalAlign=top;spacingLeft=4;spacingRight=4;whiteSpace=wrap;overflow=hidden;rotatable=0;points=[[0,0.5],[1,0.5]];portConstraint=eastwest;" parent="9RX2nL8yfyn7hLd6P2aQ-28" vertex="1">
          <mxGeometry y="78" width="320" height="26" as="geometry" />
        </mxCell>
        <mxCell id="1wyRQQ8GatOI3k9adVf--82" value="- disciplinasObrigatorias: List&amp;lt;DisciplinaSemestre&amp;gt;" style="text;html=1;strokeColor=none;fillColor=none;align=left;verticalAlign=top;spacingLeft=4;spacingRight=4;whiteSpace=wrap;overflow=hidden;rotatable=0;points=[[0,0.5],[1,0.5]];portConstraint=eastwest;" parent="9RX2nL8yfyn7hLd6P2aQ-28" vertex="1">
          <mxGeometry y="104" width="320" height="26" as="geometry" />
        </mxCell>
        <mxCell id="9RX2nL8yfyn7hLd6P2aQ-37" value="&lt;pre style=&quot;font-size: 12px&quot;&gt;&lt;b&gt;Pes&lt;/b&gt;&lt;/pre&gt;" style="swimlane;html=1;fontStyle=0;childLayout=stackLayout;horizontal=1;startSize=26;fillColor=none;horizontalStack=0;resizeParent=1;resizeLast=0;collapsible=1;marginBottom=0;swimlaneFillColor=#ffffff;rounded=0;shadow=0;comic=0;labelBackgroundColor=none;strokeWidth=1;fontFamily=Verdana;fontSize=10;align=center;" parent="1" vertex="1">
          <mxGeometry x="2225" y="-161.1" width="280" height="182" as="geometry" />
        </mxCell>
        <mxCell id="1wyRQQ8GatOI3k9adVf--90" value="- id: Integer" style="text;html=1;strokeColor=none;fillColor=none;align=left;verticalAlign=top;spacingLeft=4;spacingRight=4;whiteSpace=wrap;overflow=hidden;rotatable=0;points=[[0,0.5],[1,0.5]];portConstraint=eastwest;" parent="9RX2nL8yfyn7hLd6P2aQ-37" vertex="1">
          <mxGeometry y="26" width="280" height="26" as="geometry" />
        </mxCell>
        <mxCell id="1wyRQQ8GatOI3k9adVf--91" value="- nome: String" style="text;html=1;strokeColor=none;fillColor=none;align=left;verticalAlign=top;spacingLeft=4;spacingRight=4;whiteSpace=wrap;overflow=hidden;rotatable=0;points=[[0,0.5],[1,0.5]];portConstraint=eastwest;" parent="9RX2nL8yfyn7hLd6P2aQ-37" vertex="1">
          <mxGeometry y="52" width="280" height="26" as="geometry" />
        </mxCell>
        <mxCell id="1JhX8ZgM-yy_0caui9JD-18" value="- chm: Integer" style="text;html=1;strokeColor=none;fillColor=none;align=left;verticalAlign=top;spacingLeft=4;spacingRight=4;whiteSpace=wrap;overflow=hidden;rotatable=0;points=[[0,0.5],[1,0.5]];portConstraint=eastwest;" parent="9RX2nL8yfyn7hLd6P2aQ-37" vertex="1">
          <mxGeometry y="78" width="280" height="26" as="geometry" />
        </mxCell>
        <mxCell id="1wyRQQ8GatOI3k9adVf--103" value="- cho: Integer" style="text;html=1;strokeColor=none;fillColor=none;align=left;verticalAlign=top;spacingLeft=4;spacingRight=4;whiteSpace=wrap;overflow=hidden;rotatable=0;points=[[0,0.5],[1,0.5]];portConstraint=eastwest;" parent="9RX2nL8yfyn7hLd6P2aQ-37" vertex="1">
          <mxGeometry y="104" width="280" height="26" as="geometry" />
        </mxCell>
        <mxCell id="1wyRQQ8GatOI3k9adVf--86" value="- disciplinasObrigatorias: List&amp;lt;Disciplinas&amp;gt;" style="text;html=1;strokeColor=none;fillColor=none;align=left;verticalAlign=top;spacingLeft=4;spacingRight=4;whiteSpace=wrap;overflow=hidden;rotatable=0;points=[[0,0.5],[1,0.5]];portConstraint=eastwest;" parent="9RX2nL8yfyn7hLd6P2aQ-37" vertex="1">
          <mxGeometry y="130" width="280" height="26" as="geometry" />
        </mxCell>
        <mxCell id="1JhX8ZgM-yy_0caui9JD-28" value="- disciplinasOptativas: List&amp;lt;Disciplinas&amp;gt;" style="text;html=1;strokeColor=none;fillColor=none;align=left;verticalAlign=top;spacingLeft=4;spacingRight=4;whiteSpace=wrap;overflow=hidden;rotatable=0;points=[[0,0.5],[1,0.5]];portConstraint=eastwest;" parent="9RX2nL8yfyn7hLd6P2aQ-37" vertex="1">
          <mxGeometry y="156" width="280" height="26" as="geometry" />
        </mxCell>
        <mxCell id="aItx6ip8RPUMW4J_HGg--41" style="edgeStyle=orthogonalEdgeStyle;rounded=0;orthogonalLoop=1;jettySize=auto;html=1;" edge="1" parent="1" source="1JhX8ZgM-yy_0caui9JD-23" target="9RX2nL8yfyn7hLd6P2aQ-20">
          <mxGeometry relative="1" as="geometry" />
        </mxCell>
        <mxCell id="1JhX8ZgM-yy_0caui9JD-23" value="&lt;pre style=&quot;font-size: 12px&quot;&gt;&lt;b&gt;DisciplinaSemestre&lt;/b&gt;&lt;/pre&gt;" style="swimlane;html=1;fontStyle=0;childLayout=stackLayout;horizontal=1;startSize=26;fillColor=none;horizontalStack=0;resizeParent=1;resizeLast=0;collapsible=1;marginBottom=0;swimlaneFillColor=#ffffff;rounded=0;shadow=0;comic=0;labelBackgroundColor=none;strokeWidth=1;fontFamily=Verdana;fontSize=10;align=center;" parent="1" vertex="1">
          <mxGeometry x="380" y="220" width="280" height="78" as="geometry" />
        </mxCell>
        <mxCell id="1JhX8ZgM-yy_0caui9JD-24" value="- disciplina: Disciplina" style="text;html=1;strokeColor=none;fillColor=none;align=left;verticalAlign=top;spacingLeft=4;spacingRight=4;whiteSpace=wrap;overflow=hidden;rotatable=0;points=[[0,0.5],[1,0.5]];portConstraint=eastwest;" parent="1JhX8ZgM-yy_0caui9JD-23" vertex="1">
          <mxGeometry y="26" width="280" height="26" as="geometry" />
        </mxCell>
        <mxCell id="1JhX8ZgM-yy_0caui9JD-25" value="- semestre: Integer" style="text;html=1;strokeColor=none;fillColor=none;align=left;verticalAlign=top;spacingLeft=4;spacingRight=4;whiteSpace=wrap;overflow=hidden;rotatable=0;points=[[0,0.5],[1,0.5]];portConstraint=eastwest;" parent="1JhX8ZgM-yy_0caui9JD-23" vertex="1">
          <mxGeometry y="52" width="280" height="26" as="geometry" />
        </mxCell>
        <mxCell id="aItx6ip8RPUMW4J_HGg--47" style="edgeStyle=orthogonalEdgeStyle;rounded=0;orthogonalLoop=1;jettySize=auto;html=1;entryX=1;entryY=0.5;entryDx=0;entryDy=0;" edge="1" parent="1" source="1JhX8ZgM-yy_0caui9JD-36" target="1JhX8ZgM-yy_0caui9JD-24">
          <mxGeometry relative="1" as="geometry">
            <Array as="points">
              <mxPoint x="990" y="259" />
              <mxPoint x="990" y="259" />
            </Array>
          </mxGeometry>
        </mxCell>
        <mxCell id="aItx6ip8RPUMW4J_HGg--50" style="edgeStyle=orthogonalEdgeStyle;rounded=0;orthogonalLoop=1;jettySize=auto;html=1;entryX=1;entryY=0.5;entryDx=0;entryDy=0;" edge="1" parent="1" source="1JhX8ZgM-yy_0caui9JD-36" target="9RX2nL8yfyn7hLd6P2aQ-23">
          <mxGeometry relative="1" as="geometry">
            <Array as="points">
              <mxPoint x="870" y="310" />
              <mxPoint x="870" y="487" />
            </Array>
          </mxGeometry>
        </mxCell>
        <mxCell id="1JhX8ZgM-yy_0caui9JD-36" value="&lt;pre style=&quot;font-size: 12px&quot;&gt;&amp;lt;&amp;lt;interface&amp;gt;&amp;gt;&lt;br&gt;&lt;b&gt;GradeCurricularPrimaria&lt;/b&gt;&lt;/pre&gt;" style="swimlane;html=1;fontStyle=0;childLayout=stackLayout;horizontal=1;startSize=40;fillColor=none;horizontalStack=0;resizeParent=1;resizeLast=0;collapsible=1;marginBottom=0;swimlaneFillColor=#ffffff;rounded=0;shadow=0;comic=0;labelBackgroundColor=none;strokeWidth=1;fontFamily=Verdana;fontSize=10;align=center;" parent="1" vertex="1">
          <mxGeometry x="1111" y="18.860000000000014" width="360" height="326" as="geometry">
            <mxRectangle x="520" y="200" width="80" height="26" as="alternateBounds" />
          </mxGeometry>
        </mxCell>
        <mxCell id="1wyRQQ8GatOI3k9adVf--65" value="+ getDisciplinasObrigatorias(): List&amp;lt;DisciplinaSemestre&amp;gt;" style="text;html=1;strokeColor=none;fillColor=none;align=left;verticalAlign=top;spacingLeft=4;spacingRight=4;whiteSpace=wrap;overflow=hidden;rotatable=0;points=[[0,0.5],[1,0.5]];portConstraint=eastwest;" parent="1JhX8ZgM-yy_0caui9JD-36" vertex="1">
          <mxGeometry y="40" width="360" height="26" as="geometry" />
        </mxCell>
        <mxCell id="1wyRQQ8GatOI3k9adVf--66" value="+ getDisciplinasOptativas(): List&amp;lt;Disciplina&amp;gt;" style="text;html=1;strokeColor=none;fillColor=none;align=left;verticalAlign=top;spacingLeft=4;spacingRight=4;whiteSpace=wrap;overflow=hidden;rotatable=0;points=[[0,0.5],[1,0.5]];portConstraint=eastwest;" parent="1JhX8ZgM-yy_0caui9JD-36" vertex="1">
          <mxGeometry y="66" width="360" height="26" as="geometry" />
        </mxCell>
        <mxCell id="aItx6ip8RPUMW4J_HGg--2" value="+ getChm(): Integer" style="text;html=1;strokeColor=none;fillColor=none;align=left;verticalAlign=top;spacingLeft=4;spacingRight=4;whiteSpace=wrap;overflow=hidden;rotatable=0;points=[[0,0.5],[1,0.5]];portConstraint=eastwest;" vertex="1" parent="1JhX8ZgM-yy_0caui9JD-36">
          <mxGeometry y="92" width="360" height="26" as="geometry" />
        </mxCell>
        <mxCell id="aItx6ip8RPUMW4J_HGg--1" value="+ getCho(): Integer" style="text;html=1;strokeColor=none;fillColor=none;align=left;verticalAlign=top;spacingLeft=4;spacingRight=4;whiteSpace=wrap;overflow=hidden;rotatable=0;points=[[0,0.5],[1,0.5]];portConstraint=eastwest;" vertex="1" parent="1JhX8ZgM-yy_0caui9JD-36">
          <mxGeometry y="118" width="360" height="26" as="geometry" />
        </mxCell>
        <mxCell id="1JhX8ZgM-yy_0caui9JD-40" value="+ getChom(): Integer" style="text;html=1;strokeColor=none;fillColor=none;align=left;verticalAlign=top;spacingLeft=4;spacingRight=4;whiteSpace=wrap;overflow=hidden;rotatable=0;points=[[0,0.5],[1,0.5]];portConstraint=eastwest;" parent="1JhX8ZgM-yy_0caui9JD-36" vertex="1">
          <mxGeometry y="144" width="360" height="26" as="geometry" />
        </mxCell>
        <mxCell id="1wyRQQ8GatOI3k9adVf--76" value="+ getChcm(): Integer" style="text;html=1;strokeColor=none;fillColor=none;align=left;verticalAlign=top;spacingLeft=4;spacingRight=4;whiteSpace=wrap;overflow=hidden;rotatable=0;points=[[0,0.5],[1,0.5]];portConstraint=eastwest;" parent="1JhX8ZgM-yy_0caui9JD-36" vertex="1">
          <mxGeometry y="170" width="360" height="26" as="geometry" />
        </mxCell>
        <mxCell id="1wyRQQ8GatOI3k9adVf--67" value="+ getChem(): Integer" style="text;html=1;strokeColor=none;fillColor=none;align=left;verticalAlign=top;spacingLeft=4;spacingRight=4;whiteSpace=wrap;overflow=hidden;rotatable=0;points=[[0,0.5],[1,0.5]];portConstraint=eastwest;" parent="1JhX8ZgM-yy_0caui9JD-36" vertex="1">
          <mxGeometry y="196" width="360" height="26" as="geometry" />
        </mxCell>
        <mxCell id="1wyRQQ8GatOI3k9adVf--77" value="+ getChmp(): Integer" style="text;html=1;strokeColor=none;fillColor=none;align=left;verticalAlign=top;spacingLeft=4;spacingRight=4;whiteSpace=wrap;overflow=hidden;rotatable=0;points=[[0,0.5],[1,0.5]];portConstraint=eastwest;" parent="1JhX8ZgM-yy_0caui9JD-36" vertex="1">
          <mxGeometry y="222" width="360" height="26" as="geometry" />
        </mxCell>
        <mxCell id="1wyRQQ8GatOI3k9adVf--78" value="+ getPrazoMinimo(): Integer" style="text;html=1;strokeColor=none;fillColor=none;align=left;verticalAlign=top;spacingLeft=4;spacingRight=4;whiteSpace=wrap;overflow=hidden;rotatable=0;points=[[0,0.5],[1,0.5]];portConstraint=eastwest;" parent="1JhX8ZgM-yy_0caui9JD-36" vertex="1">
          <mxGeometry y="248" width="360" height="26" as="geometry" />
        </mxCell>
        <mxCell id="1wyRQQ8GatOI3k9adVf--79" value="+ getPrazoMaximo(): Integer" style="text;html=1;strokeColor=none;fillColor=none;align=left;verticalAlign=top;spacingLeft=4;spacingRight=4;whiteSpace=wrap;overflow=hidden;rotatable=0;points=[[0,0.5],[1,0.5]];portConstraint=eastwest;" parent="1JhX8ZgM-yy_0caui9JD-36" vertex="1">
          <mxGeometry y="274" width="360" height="26" as="geometry" />
        </mxCell>
        <mxCell id="1wyRQQ8GatOI3k9adVf--80" value="+ getPrazoEsperado(): Integer" style="text;html=1;strokeColor=none;fillColor=none;align=left;verticalAlign=top;spacingLeft=4;spacingRight=4;whiteSpace=wrap;overflow=hidden;rotatable=0;points=[[0,0.5],[1,0.5]];portConstraint=eastwest;" parent="1JhX8ZgM-yy_0caui9JD-36" vertex="1">
          <mxGeometry y="300" width="360" height="26" as="geometry" />
        </mxCell>
        <mxCell id="1wyRQQ8GatOI3k9adVf--68" value="&lt;pre style=&quot;font-size: 12px&quot;&gt;&amp;lt;&amp;lt;interface&amp;gt;&amp;gt;&lt;br&gt;&lt;b&gt;GradeCurricularSecundaria&lt;/b&gt;&lt;/pre&gt;" style="swimlane;html=1;fontStyle=0;childLayout=stackLayout;horizontal=1;startSize=40;fillColor=none;horizontalStack=0;resizeParent=1;resizeLast=0;collapsible=1;marginBottom=0;swimlaneFillColor=#ffffff;rounded=0;shadow=0;comic=0;labelBackgroundColor=none;strokeWidth=1;fontFamily=Verdana;fontSize=10;align=center;" parent="1" vertex="1">
          <mxGeometry x="1870" y="-161.1" width="320" height="144" as="geometry">
            <mxRectangle x="520" y="200" width="80" height="26" as="alternateBounds" />
          </mxGeometry>
        </mxCell>
        <mxCell id="1wyRQQ8GatOI3k9adVf--64" value="+ getChm(): Integer" style="text;html=1;strokeColor=none;fillColor=none;align=left;verticalAlign=top;spacingLeft=4;spacingRight=4;whiteSpace=wrap;overflow=hidden;rotatable=0;points=[[0,0.5],[1,0.5]];portConstraint=eastwest;" parent="1wyRQQ8GatOI3k9adVf--68" vertex="1">
          <mxGeometry y="40" width="320" height="26" as="geometry" />
        </mxCell>
        <mxCell id="1JhX8ZgM-yy_0caui9JD-39" value="+ getCho(): Integer" style="text;html=1;strokeColor=none;fillColor=none;align=left;verticalAlign=top;spacingLeft=4;spacingRight=4;whiteSpace=wrap;overflow=hidden;rotatable=0;points=[[0,0.5],[1,0.5]];portConstraint=eastwest;" parent="1wyRQQ8GatOI3k9adVf--68" vertex="1">
          <mxGeometry y="66" width="320" height="26" as="geometry" />
        </mxCell>
        <mxCell id="1wyRQQ8GatOI3k9adVf--105" value="+ getDisciplinasObrigatorias(): List&amp;lt;Disciplina&amp;gt;" style="text;html=1;strokeColor=none;fillColor=none;align=left;verticalAlign=top;spacingLeft=4;spacingRight=4;whiteSpace=wrap;overflow=hidden;rotatable=0;points=[[0,0.5],[1,0.5]];portConstraint=eastwest;" parent="1wyRQQ8GatOI3k9adVf--68" vertex="1">
          <mxGeometry y="92" width="320" height="26" as="geometry" />
        </mxCell>
        <mxCell id="1wyRQQ8GatOI3k9adVf--106" value="+ getDisciplinasOptativas(): List&amp;lt;Disciplina&amp;gt;" style="text;html=1;strokeColor=none;fillColor=none;align=left;verticalAlign=top;spacingLeft=4;spacingRight=4;whiteSpace=wrap;overflow=hidden;rotatable=0;points=[[0,0.5],[1,0.5]];portConstraint=eastwest;" parent="1wyRQQ8GatOI3k9adVf--68" vertex="1">
          <mxGeometry y="118" width="320" height="26" as="geometry" />
        </mxCell>
        <mxCell id="1wyRQQ8GatOI3k9adVf--108" style="edgeStyle=orthogonalEdgeStyle;rounded=0;orthogonalLoop=1;jettySize=auto;html=1;dashed=1;endArrow=block;endFill=0;endSize=12;startSize=12;entryX=0.5;entryY=0;entryDx=0;entryDy=0;exitX=0.5;exitY=0;exitDx=0;exitDy=0;" parent="1" source="9RX2nL8yfyn7hLd6P2aQ-37" target="1wyRQQ8GatOI3k9adVf--68" edge="1">
          <mxGeometry relative="1" as="geometry">
            <mxPoint x="2340" y="-221.1" as="sourcePoint" />
            <mxPoint x="2330" y="-141.1" as="targetPoint" />
            <Array as="points">
              <mxPoint x="2365" y="-201.04" />
              <mxPoint x="2030" y="-201.04" />
            </Array>
          </mxGeometry>
        </mxCell>
        <mxCell id="aItx6ip8RPUMW4J_HGg--40" style="edgeStyle=orthogonalEdgeStyle;rounded=0;orthogonalLoop=1;jettySize=auto;html=1;entryX=0.5;entryY=0;entryDx=0;entryDy=0;" edge="1" parent="1" source="aItx6ip8RPUMW4J_HGg--4" target="1JhX8ZgM-yy_0caui9JD-23">
          <mxGeometry relative="1" as="geometry" />
        </mxCell>
        <mxCell id="aItx6ip8RPUMW4J_HGg--4" value="&lt;pre style=&quot;font-size: 12px&quot;&gt;&lt;b&gt;PlanoCurso&lt;/b&gt;&lt;/pre&gt;" style="swimlane;html=1;fontStyle=0;childLayout=stackLayout;horizontal=1;startSize=26;fillColor=none;horizontalStack=0;resizeParent=1;resizeLast=0;collapsible=1;marginBottom=0;swimlaneFillColor=#ffffff;rounded=0;shadow=0;comic=0;labelBackgroundColor=none;strokeWidth=1;fontFamily=Verdana;fontSize=10;align=center;" vertex="1" parent="1">
          <mxGeometry x="380" y="59.8" width="280" height="82.2" as="geometry" />
        </mxCell>
        <mxCell id="aItx6ip8RPUMW4J_HGg--5" value="- disciplinasCursadas: List&amp;lt;DisciplinaSemestre&amp;gt;" style="text;html=1;strokeColor=none;fillColor=none;align=left;verticalAlign=top;spacingLeft=4;spacingRight=4;whiteSpace=wrap;overflow=hidden;rotatable=0;points=[[0,0.5],[1,0.5]];portConstraint=eastwest;" vertex="1" parent="aItx6ip8RPUMW4J_HGg--4">
          <mxGeometry y="26" width="280" height="26" as="geometry" />
        </mxCell>
        <mxCell id="aItx6ip8RPUMW4J_HGg--6" value="- disciplinasPendentes: List&amp;lt;DisciplinaSemestre&amp;gt;" style="text;html=1;strokeColor=none;fillColor=none;align=left;verticalAlign=top;spacingLeft=4;spacingRight=4;whiteSpace=wrap;overflow=hidden;rotatable=0;points=[[0,0.5],[1,0.5]];portConstraint=eastwest;" vertex="1" parent="aItx6ip8RPUMW4J_HGg--4">
          <mxGeometry y="52" width="280" height="26" as="geometry" />
        </mxCell>
        <mxCell id="aItx6ip8RPUMW4J_HGg--39" style="edgeStyle=orthogonalEdgeStyle;rounded=0;orthogonalLoop=1;jettySize=auto;html=1;entryX=1;entryY=0.5;entryDx=0;entryDy=0;" edge="1" parent="1" source="aItx6ip8RPUMW4J_HGg--17" target="aItx6ip8RPUMW4J_HGg--5">
          <mxGeometry relative="1" as="geometry" />
        </mxCell>
        <mxCell id="aItx6ip8RPUMW4J_HGg--46" style="edgeStyle=orthogonalEdgeStyle;rounded=0;orthogonalLoop=1;jettySize=auto;html=1;entryX=0;entryY=0.5;entryDx=0;entryDy=0;" edge="1" parent="1" source="aItx6ip8RPUMW4J_HGg--17" target="1wyRQQ8GatOI3k9adVf--66">
          <mxGeometry relative="1" as="geometry" />
        </mxCell>
        <mxCell id="aItx6ip8RPUMW4J_HGg--17" value="&lt;pre style=&quot;font-size: 12px&quot;&gt;&lt;b&gt;Vinculo&lt;/b&gt;&lt;/pre&gt;" style="swimlane;html=1;fontStyle=0;childLayout=stackLayout;horizontal=1;startSize=26;fillColor=none;horizontalStack=0;resizeParent=1;resizeLast=0;collapsible=1;marginBottom=0;swimlaneFillColor=#ffffff;rounded=0;shadow=0;comic=0;labelBackgroundColor=none;strokeWidth=1;fontFamily=Verdana;fontSize=10;align=center;" vertex="1" parent="1">
          <mxGeometry x="735" y="20.900000000000006" width="265" height="156" as="geometry" />
        </mxCell>
        <mxCell id="aItx6ip8RPUMW4J_HGg--18" value="- matricula: String" style="text;html=1;strokeColor=none;fillColor=none;align=left;verticalAlign=top;spacingLeft=4;spacingRight=4;whiteSpace=wrap;overflow=hidden;rotatable=0;points=[[0,0.5],[1,0.5]];portConstraint=eastwest;" vertex="1" parent="aItx6ip8RPUMW4J_HGg--17">
          <mxGeometry y="26" width="265" height="26" as="geometry" />
        </mxCell>
        <mxCell id="aItx6ip8RPUMW4J_HGg--21" value="- periodoInicial: Integer" style="text;html=1;strokeColor=none;fillColor=none;align=left;verticalAlign=top;spacingLeft=4;spacingRight=4;whiteSpace=wrap;overflow=hidden;rotatable=0;points=[[0,0.5],[1,0.5]];portConstraint=eastwest;" vertex="1" parent="aItx6ip8RPUMW4J_HGg--17">
          <mxGeometry y="52" width="265" height="26" as="geometry" />
        </mxCell>
        <mxCell id="aItx6ip8RPUMW4J_HGg--22" value="- periodoAtual: Integer" style="text;html=1;strokeColor=none;fillColor=none;align=left;verticalAlign=top;spacingLeft=4;spacingRight=4;whiteSpace=wrap;overflow=hidden;rotatable=0;points=[[0,0.5],[1,0.5]];portConstraint=eastwest;" vertex="1" parent="aItx6ip8RPUMW4J_HGg--17">
          <mxGeometry y="78" width="265" height="26" as="geometry" />
        </mxCell>
        <mxCell id="aItx6ip8RPUMW4J_HGg--23" value="- gradePrincipal: GradeCurricularPrimaria" style="text;html=1;strokeColor=none;fillColor=none;align=left;verticalAlign=top;spacingLeft=4;spacingRight=4;whiteSpace=wrap;overflow=hidden;rotatable=0;points=[[0,0.5],[1,0.5]];portConstraint=eastwest;" vertex="1" parent="aItx6ip8RPUMW4J_HGg--17">
          <mxGeometry y="104" width="265" height="26" as="geometry" />
        </mxCell>
        <mxCell id="aItx6ip8RPUMW4J_HGg--24" value="- planoCurso: PlanoCurso" style="text;html=1;strokeColor=none;fillColor=none;align=left;verticalAlign=top;spacingLeft=4;spacingRight=4;whiteSpace=wrap;overflow=hidden;rotatable=0;points=[[0,0.5],[1,0.5]];portConstraint=eastwest;" vertex="1" parent="aItx6ip8RPUMW4J_HGg--17">
          <mxGeometry y="130" width="265" height="26" as="geometry" />
        </mxCell>
      </root>
    </mxGraphModel>
  </diagram>
</mxfile>
